HIERARCHY
ROOT Hips
{
	OFFSET 0.000000 71.427986 0.000000
	CHANNELS 6 Xposition Yposition Zposition Xrotation Yrotation Zrotation
	JOINT Pelvis
	{
		OFFSET 0.000000 0.000000 0.000000
		CHANNELS 3 Xrotation Yrotation Zrotation
		JOINT LeftUpLeg
		{
			OFFSET 6.797100 -2.508499 -1.318700
			CHANNELS 3 Xrotation Yrotation Zrotation
			JOINT LeftLeg
			{
				OFFSET 0.069008 -29.241863 0.690200
				CHANNELS 3 Xrotation Yrotation Zrotation
				JOINT LeftFoot
				{
					OFFSET -0.069008 -29.568123 -0.266800
					CHANNELS 3 Xrotation Yrotation Zrotation
					JOINT LeftToeBase
					{
						OFFSET 3.145500 -8.631000 16.059900
						CHANNELS 3 Xrotation Yrotation Zrotation
						End Site
						{
							OFFSET 0.000000 18.501587 0.000000
						}
					}
				}
			}
			JOINT Left_ShortSleeve
			{
				OFFSET 0.265923 -10.480953 1.153800
				CHANNELS 3 Xrotation Yrotation Zrotation
				End Site
				{
					OFFSET 1.725763 19.823879 0.000000
				}
			}
		}
		JOINT RightUpLeg
		{
			OFFSET -6.797100 -2.508499 -1.318700
			CHANNELS 3 Xrotation Yrotation Zrotation
			JOINT RightLeg
			{
				OFFSET -0.082453 -29.241932 0.688000
				CHANNELS 3 Xrotation Yrotation Zrotation
				JOINT RightFoot
				{
					OFFSET 0.082453 -29.568058 -0.264600
					CHANNELS 3 Xrotation Yrotation Zrotation
					JOINT RightToeBase
					{
						OFFSET -3.115300 -8.682800 16.113400
						CHANNELS 3 Xrotation Yrotation Zrotation
						End Site
						{
							OFFSET 0.000000 18.567114 0.000000
						}
					}
				}
			}
			JOINT Right_ShortSleeve
			{
				OFFSET -0.265923 -10.480953 1.153800
				CHANNELS 3 Xrotation Yrotation Zrotation
				End Site
				{
					OFFSET -1.725766 19.823910 0.000000
				}
			}
		}
	}
	JOINT Spine
	{
		OFFSET 0.000000 13.368103 0.470500
		CHANNELS 3 Xrotation Yrotation Zrotation
		JOINT Spine1
		{
			OFFSET 0.147000 13.837402 0.538800
			CHANNELS 3 Xrotation Yrotation Zrotation
			JOINT Spine2
			{
				OFFSET 0.168000 16.242897 -1.435500
				CHANNELS 3 Xrotation Yrotation Zrotation
				JOINT Neck
				{
					OFFSET 0.217200 18.631500 -1.679100
					CHANNELS 3 Xrotation Yrotation Zrotation
					JOINT Head
					{
						OFFSET 0.000000 6.599396 1.385900
						CHANNELS 3 Xrotation Yrotation Zrotation
						JOINT Hat
						{
							OFFSET -0.532200 27.220596 -10.096100
							CHANNELS 3 Xrotation Yrotation Zrotation
							End Site
							{
								OFFSET 0.000000 22.029861 0.000000
							}
						}
						JOINT HairD
						{
							OFFSET -10.777400 17.437393 -1.325900
							CHANNELS 3 Xrotation Yrotation Zrotation
							JOINT HairD1
							{
								OFFSET -3.290299 -11.051193 1.062200
								CHANNELS 3 Xrotation Yrotation Zrotation
								End Site
								{
									OFFSET 0.000000 11.579437 0.000000
								}
							}
						}
						JOINT HairB
						{
							OFFSET -10.777400 17.437393 1.467900
							CHANNELS 3 Xrotation Yrotation Zrotation
							JOINT HairB1
							{
								OFFSET -1.561200 -12.956299 3.590200
								CHANNELS 3 Xrotation Yrotation Zrotation
								End Site
								{
									OFFSET 0.000000 13.534866 0.000000
								}
							}
						}
						JOINT HairA
						{
							OFFSET 9.713100 17.437393 1.467900
							CHANNELS 3 Xrotation Yrotation Zrotation
							JOINT HairA1
							{
								OFFSET 1.561200 -12.956299 3.590200
								CHANNELS 3 Xrotation Yrotation Zrotation
								End Site
								{
									OFFSET 0.000000 13.534866 0.000000
								}
							}
						}
						JOINT HairC
						{
							OFFSET 9.713100 17.437393 -1.325900
							CHANNELS 3 Xrotation Yrotation Zrotation
							JOINT HairC1
							{
								OFFSET 3.290300 -11.051193 1.062200
								CHANNELS 3 Xrotation Yrotation Zrotation
								End Site
								{
									OFFSET 0.000000 11.579437 0.000000
								}
							}
						}
					}
				}
				JOINT LeftShoulder
				{
					OFFSET 5.101800 15.108002 -2.763700
					CHANNELS 3 Xrotation Yrotation Zrotation
					JOINT LeftArm
					{
						OFFSET 9.825497 2.506317 -1.597400
						CHANNELS 3 Xrotation Yrotation Zrotation
						JOINT LeftForeArm
						{
							OFFSET 21.966244 0.000000 0.000000
							CHANNELS 3 Xrotation Yrotation Zrotation
							JOINT LeftHand
							{
								OFFSET 33.879036 0.000000 0.000000
								CHANNELS 3 Xrotation Yrotation Zrotation
								JOINT LeftHandThumb1
								{
									OFFSET 6.715286 -2.359680 3.363841
									CHANNELS 3 Xrotation Yrotation Zrotation
									JOINT LeftHandThumb2
									{
										OFFSET 2.507072 -1.447464 1.447461
										CHANNELS 3 Xrotation Yrotation Zrotation
										JOINT LeftHandThumb3
										{
											OFFSET 2.898338 -1.673355 1.673357
											CHANNELS 3 Xrotation Yrotation Zrotation
											End Site
											{
												OFFSET -0.295959 3.727692 -0.131651
											}
										}
									}
								}
								JOINT LeftHandIndex1
								{
									OFFSET 14.190811 -0.254547 3.840278
									CHANNELS 3 Xrotation Yrotation Zrotation
									JOINT LeftHandIndex2
									{
										OFFSET 3.551727 0.000000 -0.000000
										CHANNELS 3 Xrotation Yrotation Zrotation
										JOINT LeftHandIndex3
										{
											OFFSET 2.894196 0.000000 0.000000
											CHANNELS 3 Xrotation Yrotation Zrotation
											End Site
											{
												OFFSET -1.000603 2.690872 0.366626
											}
										}
									}
								}
								JOINT LeftHandMiddle1
								{
									OFFSET 13.776489 0.000000 0.000000
									CHANNELS 3 Xrotation Yrotation Zrotation
									JOINT LeftHandMiddle2
									{
										OFFSET 3.438232 0.000000 0.000000
										CHANNELS 3 Xrotation Yrotation Zrotation
										JOINT LeftHandMiddle3
										{
											OFFSET 3.691551 0.000000 0.000000
											CHANNELS 3 Xrotation Yrotation Zrotation
											End Site
											{
												OFFSET -1.082298 3.499527 0.457670
											}
										}
									}
								}
								JOINT LeftHandRing1
								{
									OFFSET 13.966164 -0.268127 -3.067488
									CHANNELS 3 Xrotation Yrotation Zrotation
									JOINT LeftHandRing2
									{
										OFFSET 3.162567 0.000000 0.000000
										CHANNELS 3 Xrotation Yrotation Zrotation
										JOINT LeftHandRing3
										{
											OFFSET 3.324348 0.000000 0.000000
											CHANNELS 3 Xrotation Yrotation Zrotation
											End Site
											{
												OFFSET -0.861900 3.184998 0.405154
											}
										}
									}
								}
								JOINT LeftHandPinky1
								{
									OFFSET 13.131393 -0.168503 -5.746925
									CHANNELS 3 Xrotation Yrotation Zrotation
									JOINT LeftHandPinky2
									{
										OFFSET 2.849182 0.000000 0.000000
										CHANNELS 3 Xrotation Yrotation Zrotation
										JOINT LeftHandPinky3
										{
											OFFSET 2.805038 0.000000 0.000000
											CHANNELS 3 Xrotation Yrotation Zrotation
											End Site
											{
												OFFSET -0.882500 2.642609 0.325652
											}
										}
									}
								}
							}
							JOINT Left_Sleeve
							{
								OFFSET 6.592125 -0.646545 0.805568
								CHANNELS 3 Xrotation Yrotation Zrotation
								End Site
								{
									OFFSET -0.000179 20.275787 -0.000000
								}
							}
						}
					}
				}
				JOINT RightShoulder
				{
					OFFSET -5.731700 15.108002 -2.763700
					CHANNELS 3 Xrotation Yrotation Zrotation
					JOINT RightArm
					{
						OFFSET -9.825497 2.506317 -1.597400
						CHANNELS 3 Xrotation Yrotation Zrotation
						JOINT RightForeArm
						{
							OFFSET -21.966242 0.000000 0.000000
							CHANNELS 3 Xrotation Yrotation Zrotation
							JOINT RightHand
							{
								OFFSET -33.879032 0.000000 0.000000
								CHANNELS 3 Xrotation Yrotation Zrotation
								JOINT RightHandThumb1
								{
									OFFSET -6.715286 -2.359680 3.363841
									CHANNELS 3 Xrotation Yrotation Zrotation
									JOINT RightHandThumb2
									{
										OFFSET -2.507072 -1.447464 1.447461
										CHANNELS 3 Xrotation Yrotation Zrotation
										JOINT RightHandThumb3
										{
											OFFSET -2.898338 -1.673355 1.673357
											CHANNELS 3 Xrotation Yrotation Zrotation
											End Site
											{
												OFFSET 0.295959 3.727692 -0.131651
											}
										}
									}
								}
								JOINT RightHandIndex1
								{
									OFFSET -14.190811 -0.254547 3.840278
									CHANNELS 3 Xrotation Yrotation Zrotation
									JOINT RightHandIndex2
									{
										OFFSET -3.551727 0.000000 -0.000000
										CHANNELS 3 Xrotation Yrotation Zrotation
										JOINT RightHandIndex3
										{
											OFFSET -2.894196 0.000000 0.000000
											CHANNELS 3 Xrotation Yrotation Zrotation
											End Site
											{
												OFFSET 1.000603 2.690872 0.366626
											}
										}
									}
								}
								JOINT RightHandMiddle1
								{
									OFFSET -13.776489 0.000000 0.000000
									CHANNELS 3 Xrotation Yrotation Zrotation
									JOINT RightHandMiddle2
									{
										OFFSET -3.438232 0.000000 0.000000
										CHANNELS 3 Xrotation Yrotation Zrotation
										JOINT RightHandMiddle3
										{
											OFFSET -3.691551 0.000000 0.000000
											CHANNELS 3 Xrotation Yrotation Zrotation
											End Site
											{
												OFFSET 1.082298 3.499527 0.457670
											}
										}
									}
								}
								JOINT RightHandRing1
								{
									OFFSET -13.966164 -0.268127 -3.067488
									CHANNELS 3 Xrotation Yrotation Zrotation
									JOINT RightHandRing2
									{
										OFFSET -3.162567 0.000000 0.000000
										CHANNELS 3 Xrotation Yrotation Zrotation
										JOINT RightHandRing3
										{
											OFFSET -3.324348 0.000000 0.000000
											CHANNELS 3 Xrotation Yrotation Zrotation
											End Site
											{
												OFFSET 0.861900 3.184998 0.405154
											}
										}
									}
								}
								JOINT RightHandPinky1
								{
									OFFSET -13.131393 -0.168503 -5.746925
									CHANNELS 3 Xrotation Yrotation Zrotation
									JOINT RightHandPinky2
									{
										OFFSET -2.849182 0.000000 0.000000
										CHANNELS 3 Xrotation Yrotation Zrotation
										JOINT RightHandPinky3
										{
											OFFSET -2.805038 0.000000 0.000000
											CHANNELS 3 Xrotation Yrotation Zrotation
											End Site
											{
												OFFSET 0.882500 2.642609 0.325652
											}
										}
									}
								}
							}
							JOINT Right_Sleeve
							{
								OFFSET -6.592125 -0.646545 0.805568
								CHANNELS 3 Xrotation Yrotation Zrotation
								End Site
								{
									OFFSET 0.000179 20.275787 -0.000000
								}
							}
						}
					}
				}
				JOINT Bind_Right_JacketString
				{
					OFFSET -3.534800 11.969597 7.200700
					CHANNELS 3 Xrotation Yrotation Zrotation
					JOINT Bind_Right_JacketString1
					{
						OFFSET -0.319900 -6.102600 2.794100
						CHANNELS 3 Xrotation Yrotation Zrotation
						End Site
						{
							OFFSET 0.000000 6.719452 0.000000
						}
					}
				}
				JOINT Bind_Left_JacketString
				{
					OFFSET 2.904800 11.969597 7.200700
					CHANNELS 3 Xrotation Yrotation Zrotation
					JOINT Bind_Left_JacketString1
					{
						OFFSET 0.364800 -5.904503 3.186800
						CHANNELS 3 Xrotation Yrotation Zrotation
						End Site
						{
							OFFSET 0.000000 6.719513 0.000000
						}
					}
				}
				JOINT HairE
				{
					OFFSET 5.915200 17.612701 -11.592200
					CHANNELS 3 Xrotation Yrotation Zrotation
					JOINT HairE1
					{
						OFFSET 0.289200 -7.171898 -1.284500
						CHANNELS 3 Xrotation Yrotation Zrotation
						End Site
						{
							OFFSET 0.000000 7.291756 0.000000
						}
					}
				}
				JOINT HairF
				{
					OFFSET -0.864800 17.612701 -11.592200
					CHANNELS 3 Xrotation Yrotation Zrotation
					JOINT HairF1
					{
						OFFSET 0.000000 -14.087097 -2.127501
						CHANNELS 3 Xrotation Yrotation Zrotation
						End Site
						{
							OFFSET 0.000000 14.246841 0.000000
						}
					}
				}
				JOINT HairG
				{
					OFFSET -8.087700 17.612701 -11.592200
					CHANNELS 3 Xrotation Yrotation Zrotation
					JOINT HairG1
					{
						OFFSET -0.293600 -6.081398 -0.910100
						CHANNELS 3 Xrotation Yrotation Zrotation
						End Site
						{
							OFFSET 0.000000 6.156120 0.000000
						}
					}
				}
			}
		}
	}
	JOINT Pouch
	{
		OFFSET 0.000000 4.394501 10.847300
		CHANNELS 3 Xrotation Yrotation Zrotation
		End Site
		{
			OFFSET 0.000000 21.880577 0.000000
		}
	}
	JOINT Bag
	{
		OFFSET -13.229000 4.813004 -0.593300
		CHANNELS 3 Xrotation Yrotation Zrotation
		End Site
		{
			OFFSET 0.000000 21.880577 0.000000
		}
	}
	JOINT OccupyGuyFacialAnim_Joint
	{
		OFFSET 1.000000 -70.206398 -1.655000
		CHANNELS 3 Xrotation Yrotation Zrotation
		End Site
		{
			OFFSET 0.000000 21.880577 0.000000
		}
	}
}
MOTION
Frames: 4
Frame Time: 0.033333
-3.398445 61.536133 -53.839771 -7.107429 -44.927700 -6.452780 -0.000000 -0.000001 -0.000000 -36.027954 8.272298 28.484858 47.252700 -3.005546 2.742671 -5.723894 1.475491 -17.208617 0.000000 0.000000 -0.000000 -0.000004 -0.000002 -0.000001 -21.257569 -8.619758 -11.354935 62.134579 2.652991 -4.207197 -35.662433 -3.690023 9.646435 0.000000 0.000000 0.000000 0.000001 -0.000001 -0.000001 5.119596 0.267121 -0.140090 8.726659 0.420689 -0.234250 8.723458 0.488889 -0.244969 20.668820 4.105970 -3.503105 -13.373740 25.526893 -3.994599 0.000002 -0.000001 0.000001 0.000002 -0.000001 0.000001 0.000002 -0.000001 0.000001 0.000002 -0.000001 0.000000 -0.000000 0.000000 -0.000000 0.000002 -0.000001 0.000000 -0.000000 0.000000 -0.000000 0.000002 -0.000001 0.000001 0.000002 -0.000001 0.000001 1.575808 -5.754910 0.690812 -65.614847 -4.419200 -49.297515 -0.003303 -93.041520 -0.003289 -0.012580 -13.392252 11.881166 -13.172349 -8.837450 -7.085513 21.979737 47.654155 -12.569630 -0.000000 -0.000000 -0.000002 6.976911 6.880557 -90.798855 5.424897 6.726031 -77.753419 0.000002 0.000000 -0.000000 6.948046 6.880884 -90.557947 6.260079 6.853230 -84.808874 0.000000 0.000001 -0.000003 7.774828 6.823161 -97.479859 5.745864 6.787339 -80.480843 -0.000001 -0.000000 -0.000001 11.428583 6.585627 -93.931616 6.149639 2.756106 -83.904393 -0.000000 -0.000000 0.000001 -0.000000 0.000001 0.000004 5.553961 25.969988 4.768284 -69.092186 30.456056 69.600878 -0.000020 101.568403 0.000010 7.589053 9.659930 -4.979137 -13.531611 1.980960 -8.447310 17.078051 -36.797555 2.917519 -0.000001 0.000000 -0.000001 5.355937 -7.112784 95.137930 6.476276 -6.932242 86.095750 -0.000000 0.000001 0.000001 7.785278 -6.897893 96.935814 6.659151 -6.942250 87.609723 -0.000001 -0.000002 -0.000001 7.500574 -6.928926 96.077559 7.138544 -6.945651 91.573275 0.000000 0.000001 -0.000001 7.778739 -6.908487 99.048746 7.430459 -6.931573 93.989536 -0.000002 -0.000002 -0.000005 0.000001 0.000002 -0.000001 -0.000001 0.000003 -0.000001 -0.000000 0.000001 -0.000001 -0.000001 0.000003 -0.000001 -0.000001 0.000003 -0.000001 -0.000001 0.000003 -0.000001 -0.000000 0.000001 -0.000001 -0.000001 0.000003 -0.000001 -0.000001 0.000003 -0.000001 -0.000001 0.000003 -0.000001 -0.000000 0.000001 -0.000001 -0.000000 -0.000001 -0.000000 -0.000000 -0.000001 -0.000000 -0.000000 -0.000001 -0.000000 
-3.413916 61.634552 -53.661106 -7.143448 -44.982410 -6.373551 -0.000000 -0.000001 -0.000000 -35.727524 8.463013 28.372906 47.117240 -2.881706 2.571735 -5.851098 1.471021 -17.065322 0.000000 -0.000002 -0.000000 0.000002 0.000001 0.000000 -20.948141 -8.702109 -11.527898 61.711005 2.832942 -4.370185 -35.564932 -3.720753 9.758782 -0.000000 0.000002 -0.000000 -0.000000 -0.000000 0.000000 5.121933 0.279682 -0.161290 8.720250 0.444970 -0.263901 8.716931 0.512584 -0.274826 20.637845 4.156130 -3.668962 -13.189766 25.765058 -3.836691 0.000001 -0.000001 -0.000000 0.000001 -0.000001 -0.000000 0.000001 -0.000001 0.000000 0.000001 -0.000001 -0.000000 0.000001 -0.000001 -0.000000 0.000001 -0.000001 -0.000000 0.000001 -0.000001 -0.000000 0.000001 -0.000001 -0.000000 0.000001 -0.000001 -0.000000 1.561856 -5.619567 0.312408 -64.717361 -4.193901 -49.573670 -0.007848 -93.773300 -0.007820 -0.097541 -13.443749 11.996073 -13.113986 -8.782165 -7.058919 21.981215 47.655681 -12.570704 0.000001 -0.000001 0.000000 6.981283 6.880499 -90.835902 5.425391 6.726144 -77.757647 0.000001 0.000002 -0.000002 6.949376 6.880875 -90.569429 6.260863 6.853303 -84.815486 0.000000 0.000000 0.000001 7.774977 6.823142 -97.481150 5.748599 6.787795 -80.503991 -0.000001 -0.000001 -0.000001 11.436748 6.579968 -94.003074 6.147183 2.755837 -83.883951 -0.000000 0.000000 0.000001 -0.000002 -0.000002 0.000001 5.523926 25.906563 4.865845 -68.746721 30.538718 69.553490 0.000089 101.539593 -0.000090 7.699123 9.732738 -4.814788 -13.524087 1.959342 -8.432732 17.017372 -36.687606 2.897458 0.000001 0.000000 -0.000000 5.340227 -7.116073 95.185065 6.474018 -6.932082 86.077111 -0.000006 0.000001 0.000000 7.792403 -6.897028 96.994642 6.655909 -6.942115 87.582874 0.000001 -0.000001 -0.000001 7.500897 -6.928957 96.096766 7.134723 -6.945761 91.541808 -0.000001 -0.000001 -0.000001 7.773809 -6.909105 99.030462 7.426667 -6.931847 93.958056 0.000000 0.000000 0.000002 0.000001 0.000003 -0.000003 -0.000000 0.000002 -0.000000 -0.000000 0.000002 -0.000000 -0.000000 0.000002 -0.000000 -0.000000 0.000002 -0.000000 -0.000000 0.000002 -0.000000 -0.000000 0.000002 -0.000000 -0.000000 0.000002 -0.000000 -0.000000 0.000002 -0.000000 -0.000000 0.000002 -0.000000 -0.000000 0.000002 -0.000000 -0.000000 -0.000001 -0.000000 -0.000000 -0.000001 -0.000000 -0.000000 -0.000001 -0.000000 
-3.370353 61.956566 -53.316025 -6.918755 -45.109779 -6.094406 -0.000000 0.000000 0.000000 -35.053391 8.793819 27.913233 46.311992 -2.414801 2.403311 -5.843759 1.442510 -16.876880 0.000000 0.000000 0.000000 0.000001 0.000001 -0.000001 -20.377842 -8.938376 -11.809570 60.342194 3.159633 -4.619711 -34.993556 -3.756784 10.017430 -0.000000 0.000002 0.000000 -0.000001 0.000001 -0.000000 5.038254 0.264055 -0.212220 8.575341 0.418984 -0.332995 8.572207 0.484233 -0.343247 20.641491 4.170846 -3.783608 -13.103500 25.870755 -3.812282 0.000002 0.000000 -0.000001 0.000002 0.000000 -0.000001 0.000002 0.000000 -0.000001 0.000002 0.000000 -0.000001 0.000002 0.000000 -0.000000 0.000002 0.000000 -0.000001 0.000002 0.000000 -0.000000 0.000002 0.000000 -0.000001 0.000002 0.000000 -0.000001 1.562260 -5.591251 -0.122949 -64.115061 -4.106822 -49.462837 -0.000838 -94.153010 -0.000815 -0.110046 -13.784180 12.274545 -13.116994 -8.781794 -7.068622 21.962572 47.635737 -12.556788 0.000003 0.000003 0.000003 6.985408 6.880440 -90.869861 5.426155 6.726305 -77.764135 0.000001 0.000000 0.000002 6.948462 6.880877 -90.561485 6.260018 6.853230 -84.808362 0.000001 -0.000000 0.000001 7.774456 6.823206 -97.476471 5.751237 6.788232 -80.526332 0.000000 -0.000001 -0.000003 11.446268 6.573513 -94.084367 6.144875 2.755593 -83.864580 -0.000000 -0.000003 0.000001 0.000000 0.000002 -0.000001 5.477889 25.747513 4.957042 -68.634010 30.604906 69.700721 0.000128 101.566962 -0.000169 7.445714 9.696798 -4.440147 -13.522772 1.944745 -8.408007 16.955692 -36.575608 2.877021 -0.000001 -0.000001 0.000001 5.309974 -7.119417 95.200857 6.471961 -6.931950 86.060015 -0.000002 0.000000 0.000000 7.800882 -6.895998 97.066270 6.652952 -6.941992 87.558469 0.000001 -0.000001 -0.000001 7.503033 -6.928876 96.129708 7.130814 -6.945868 91.509543 0.000001 -0.000002 -0.000001 7.768291 -6.909906 99.012417 7.423364 -6.932053 93.930640 0.000002 -0.000001 0.000000 0.000004 0.000000 -0.000001 0.000002 0.000002 -0.000000 0.000002 0.000002 0.000000 0.000002 0.000002 -0.000000 0.000002 0.000002 -0.000000 0.000002 0.000002 -0.000000 0.000002 0.000002 0.000001 0.000002 0.000002 -0.000000 0.000002 0.000002 -0.000000 0.000002 0.000002 -0.000000 0.000002 0.000002 0.000001 -0.000000 0.000000 0.000000 -0.000000 0.000000 0.000000 -0.000000 0.000000 0.000000 
-3.263238 62.426193 -52.844727 -6.394135 -45.301373 -5.611789 0.000000 0.000001 0.000000 -34.306029 9.347461 27.362954 45.063191 -2.007128 2.120914 -5.755409 1.413618 -16.484554 -0.000000 -0.000002 0.000000 -0.000001 -0.000001 -0.000001 -19.680394 -9.191951 -12.032456 58.254916 3.304117 -4.999435 -34.018577 -3.857253 10.565633 0.000000 -0.000002 -0.000000 0.000001 0.000003 -0.000000 4.900288 0.316863 -0.285769 8.327982 0.515939 -0.429979 8.324183 0.579097 -0.440807 20.336337 4.177291 -3.727740 -13.040265 25.763040 -3.710217 0.000002 0.000001 0.000000 0.000002 0.000001 0.000000 0.000002 0.000001 0.000001 0.000002 0.000001 -0.000000 -0.000002 0.000000 -0.000000 0.000002 0.000001 -0.000000 -0.000002 0.000000 -0.000000 0.000002 0.000001 0.000000 0.000002 0.000001 0.000000 1.552891 -5.514275 -0.205011 -63.897799 -4.090044 -49.321247 0.000954 -94.522981 0.000960 -0.238686 -13.270276 12.130243 -13.176971 -8.833173 -7.111307 21.926738 47.597392 -12.530190 0.000001 -0.000001 0.000002 6.988162 6.880392 -90.890905 5.425025 6.726066 -77.754457 0.000000 -0.000002 -0.000002 6.946427 6.880902 -90.543132 6.258180 6.853060 -84.792953 0.000001 0.000000 0.000002 7.773589 6.823311 -97.468746 5.752779 6.788491 -80.539405 0.000000 0.000000 -0.000001 11.455254 6.567390 -94.161234 6.142224 2.755303 -83.842389 -0.000001 0.000000 -0.000001 0.000001 -0.000000 -0.000000 5.445269 25.508696 4.872846 -68.686308 30.441474 69.857816 0.000160 101.922521 -0.000125 7.344847 9.643186 -4.183296 -13.524920 1.934763 -8.378021 16.900427 -36.475133 2.858603 -0.000000 -0.000002 0.000003 5.282683 -7.121885 95.200427 6.470075 -6.931825 86.044415 -0.000002 -0.000001 -0.000002 7.808639 -6.895023 97.132680 6.651800 -6.941928 87.548900 0.000002 -0.000002 0.000001 7.504057 -6.928910 96.159119 7.127125 -6.945956 91.478964 -0.000002 0.000000 -0.000002 7.761882 -6.910841 98.987022 7.420528 -6.932237 93.907130 -0.000001 0.000000 -0.000003 0.000001 -0.000003 -0.000001 -0.000000 0.000001 -0.000000 -0.000001 0.000000 -0.000000 -0.000000 0.000001 -0.000000 -0.000000 0.000001 -0.000000 -0.000000 0.000001 -0.000000 -0.000001 0.000000 -0.000000 -0.000000 0.000001 -0.000000 -0.000000 0.000001 -0.000000 -0.000000 0.000001 -0.000000 -0.000001 0.000000 -0.000000 0.000000 0.000001 0.000000 0.000000 0.000001 0.000000 0.000000 0.000001 0.000000 
